<svg xmlns="http://www.w3.org/2000/svg" width="80" height="80" viewBox="0 0 80 80">
  <g id="Group_996" data-name="Group 996" transform="translate(-303 -1626)">
    <circle id="Ellipse_1306" data-name="Ellipse 1306" cx="40" cy="40" r="40" transform="translate(303 1626)" fill="#ebf3fe"/>
    <path id="noun-sliders-1785761" d="M120.393,95.288v-3.3h14.293a1.1,1.1,0,0,1,1.1,1.1v1.1a1.1,1.1,0,0,1-1.1,1.1Zm-5.5,0h-8.8a1.1,1.1,0,0,1-1.1-1.1v-1.1a1.1,1.1,0,0,1,1.1-1.1h8.8Zm16.492-9.9v-3.3h3.3a1.1,1.1,0,0,1,1.1,1.1v1.1a1.1,1.1,0,0,1-1.1,1.1Zm-5.5,0H106.1a1.1,1.1,0,0,1-1.1-1.1v-1.1a1.1,1.1,0,0,1,1.1-1.1h19.79ZM114.9,75.5V72.2h19.79a1.1,1.1,0,0,1,1.1,1.1v1.1a1.1,1.1,0,0,1-1.1,1.1Zm-5.5,0h-3.3a1.1,1.1,0,0,1-1.1-1.1V73.3a1.1,1.1,0,0,1,1.1-1.1h3.3Zm2.2-5.5h1.1a1.1,1.1,0,0,1,1.1,1.1v5.5a1.1,1.1,0,0,1-1.1,1.1h-1.1a1.1,1.1,0,0,1-1.1-1.1V71.1a1.1,1.1,0,0,1,1.1-1.1Zm16.492,9.9h1.1a1.1,1.1,0,0,1,1.1,1.1v5.5a1.1,1.1,0,0,1-1.1,1.1h-1.1a1.1,1.1,0,0,1-1.1-1.1v-5.5a1.1,1.1,0,0,1,1.1-1.1Zm-10.995,9.9h1.1a1.1,1.1,0,0,1,1.1,1.1v5.5a1.1,1.1,0,0,1-1.1,1.1h-1.1a1.1,1.1,0,0,1-1.1-1.1v-5.5a1.1,1.1,0,0,1,1.1-1.1Z" transform="translate(222.607 1582.257)" stroke="#fff" stroke-width="1" fill-rule="evenodd"/>
  </g>
</svg>
