<svg xmlns="http://www.w3.org/2000/svg" width="80" height="80" viewBox="0 0 80 80">
  <g id="Group_997" data-name="Group 997" transform="translate(-489 -1626)">
    <circle id="Ellipse_1307" data-name="Ellipse 1307" cx="40" cy="40" r="40" transform="translate(489 1626)" fill="#ebf3fe"/>
    <path id="Path_12020" data-name="Path 12020" d="M6,0a6,6,0,0,1,6,6c.278,2.615-1.373,5.646-2.964,5.5C8.3,11.446,7.491,7.554,6,7.554c-.858,0-1.283,3.783-2.329,3.95C1.866,11.79,0,8.455,0,6A6,6,0,0,1,6,0Z" transform="translate(521 1647)" fill="#f0bc5e"/>
    <path id="Path_11895" data-name="Path 11895" d="M192.512,6.825a7.847,7.847,0,0,0-2.944,15.122l0-1.132a6.816,6.816,0,1,1,5.862.016v1.127a7.846,7.846,0,0,0-2.913-15.133Zm-.007,7.453a2.437,2.437,0,0,0-2.488,2.379l.04,13.8-4.348-4.132a2.227,2.227,0,0,0-1.534-.615,2.044,2.044,0,0,0-1.491.632l-.233.245a1.954,1.954,0,0,0-.521,1.512,2.741,2.741,0,0,0,.609,1.456l7.255,9.2s.028.037.061.086.074.132.06.095c-.006-.016.022.1.032.192s.013.133.014.146v1.58h-1.209a1.1,1.1,0,0,0-.916.563,1.961,1.961,0,0,0-.274,1.041v3.08a1.96,1.96,0,0,0,.274,1.041,1.1,1.1,0,0,0,.916.563h16.829a1.1,1.1,0,0,0,.916-.563,1.961,1.961,0,0,0,.274-1.041v-3.08a1.96,1.96,0,0,0-.274-1.041,1.1,1.1,0,0,0-.916-.563H204.45a12.372,12.372,0,0,1,.04-2.052,2.01,2.01,0,0,1,.282-.758,8.705,8.705,0,0,0,.632-1.759,27.946,27.946,0,0,0,.351-5.562c0-2.127-.056-4.01-.056-4.01a2.3,2.3,0,0,0-2.318-2.373,2.264,2.264,0,0,0-1.52.59,2.284,2.284,0,0,0-2.058-1.361,2.206,2.206,0,0,0-1.5.59,2.282,2.282,0,0,0-2.053-1.352,2.19,2.19,0,0,0-1.259.4V16.656a2.441,2.441,0,0,0-2.489-2.377Zm0,1.035a1.388,1.388,0,0,1,1.454,1.343V27.913a.517.517,0,1,0,1.035,0V25.22a1.264,1.264,0,1,1,2.517,0v.673h0c0,.014,0,.029,0,.044s0,.031,0,.046v2.681h0a.517.517,0,1,0,1.035,0V25.983a1.264,1.264,0,1,1,2.517,0v.7q0,.011,0,.023s0,.01,0,.014v2.639a.517.517,0,1,0,1.035,0V26.724a1.308,1.308,0,0,1,1.284-1.355,1.267,1.267,0,0,1,1.286,1.31.546.546,0,0,0,0,.061s.06,1.871.055,3.976a32.056,32.056,0,0,1-.314,5.294,7.345,7.345,0,0,1-.557,1.561,3.309,3.309,0,0,0-.377,1.041,11.129,11.129,0,0,0-.068,2.237H191V39.258c0-.01,0-.02,0-.03s-.005-.1-.019-.222a1.662,1.662,0,0,0-.091-.433,1.28,1.28,0,0,0-.172-.314c-.053-.079-.1-.141-.1-.141h0l0-.005-7.255-9.2a1.759,1.759,0,0,1-.39-.9.851.851,0,0,1,.24-.712l.234-.245a1.093,1.093,0,0,1,1.562.02l4.643,4.411a.955.955,0,0,0,.086.131.8.8,0,0,0,.659.316.65.65,0,0,0,.412-.188.742.742,0,0,0,.155-.235,1.424,1.424,0,0,0,.1-.371,3.156,3.156,0,0,0,.038-.425h0s0-.008,0-.012l-.041-14.048a1.386,1.386,0,0,1,1.453-1.341Zm-3.753,26.573h16.829c-.038,0-.023-.023.036.073a1.011,1.011,0,0,1,.119.5v3.08a1.008,1.008,0,0,1-.119.5c-.059.1-.074.073-.036.073H188.753c.038,0,.024.023-.036-.073a1.01,1.01,0,0,1-.12-.5v-3.08a1.01,1.01,0,0,1,.12-.5C188.776,41.863,188.791,41.886,188.753,41.886Z" transform="translate(334.652 1639.019)" fill="#16062d" stroke="#16062d" stroke-width="0.5" fill-rule="evenodd"/>
    <path id="Path_12019" data-name="Path 12019" d="M508.814,2769.056v4.138h16.555v-4.138Z" transform="translate(15 -1088)" fill="#f0bc5e"/>
  </g>
</svg>
