<svg xmlns="http://www.w3.org/2000/svg" width="80" height="80" viewBox="0 0 80 80">
  <g id="Group_998" data-name="Group 998" transform="translate(-675 -1626)">
    <circle id="Ellipse_1308" data-name="Ellipse 1308" cx="40" cy="40" r="40" transform="translate(675 1626)" fill="#ebf3fe"/>
    <path id="Path_12021" data-name="Path 12021" d="M701.707,2741.661,687.451,2756.3l11.573,11.573,14.408-14.485-2.3-9.2Z" transform="translate(15 -1088)" fill="#78d9c6"/>
    <path id="Path_11896" data-name="Path 11896" d="M101.684,14.536,99.212,5.194l3.683-3.683A.879.879,0,0,0,101.651.268L97.969,3.951,88.626,1.479a.879.879,0,0,0-.847.228L70.261,19.227a.88.88,0,0,0,0,1.243L82.693,32.9a.88.88,0,0,0,1.243,0l17.519-17.519a.879.879,0,0,0,.228-.847Zm-18.369,16.5L72.125,19.848l16.54-16.54L96.53,5.389,93.259,8.66h0a.861.861,0,0,0-.085.1A2.857,2.857,0,1,0,94.4,9.988a.86.86,0,0,0,.1-.085l3.271-3.271L99.854,14.5Z" transform="translate(628.422 1650.578)"/>
    <path id="Path_11897" data-name="Path 11897" d="M259.28,257.526a.879.879,0,0,0,0,1.243l4.973,4.973A.879.879,0,0,0,265.5,262.5l-4.973-4.973a.879.879,0,0,0-1.243,0Z" transform="translate(450.592 1408.549)"/>
    <path id="Path_11898" data-name="Path 11898" d="M212.969,315,208,310.023a.879.879,0,1,0-1.243,1.243l4.973,4.973A.879.879,0,1,0,212.969,315Z" transform="translate(500.011 1359.16)"/>
  </g>
</svg>
