<svg xmlns="http://www.w3.org/2000/svg" width="80" height="80" viewBox="0 0 80 80">
  <g id="Group_999" data-name="Group 999" transform="translate(-861 -1626)">
    <circle id="Ellipse_1309" data-name="Ellipse 1309" cx="40" cy="40" r="40" transform="translate(861 1626)" fill="#ebf3fe"/>
    <path id="Path_12022" data-name="Path 12022" d="M872.714,2772.044s.92-11.106,7.971-12.409,9.426-1.993,13.258,1.992a25.21,25.21,0,0,1,5.365,9.35v1.067Z" transform="translate(15 -1088)" fill="#4abde4"/>
    <path id="Path_11899" data-name="Path 11899" d="M186.636,148.21a10.125,10.125,0,1,1,20.25,0M201.12,161.6a1.092,1.092,0,0,0-1.091-1.092H196.2a1.091,1.091,0,1,0,0,2.183h3.829C200.63,162.7,201.12,161.6,201.12,161.6Zm.132-.3c6.058-.542,5.436-4.12,5.436-4.12m-17.406-1.554v-6.17a1.151,1.151,0,0,0-1.118-1.177h-.377a1.15,1.15,0,0,0-1.15,1.177v6.17a1.15,1.15,0,0,0,1.15,1.15h.377A1.15,1.15,0,0,0,189.282,155.624Zm17.856,0v-6.17a1.15,1.15,0,0,0-1.15-1.177h-.377a1.151,1.151,0,0,0-1.118,1.177v6.17a1.15,1.15,0,0,0,1.15,1.15h.377A1.15,1.15,0,0,0,207.138,155.624Zm-16.976,1.157a8.716,8.716,0,0,0,13.67-.972m.767-8.359h0a8.716,8.716,0,0,0-15.978.092m7.275,12.744a13.888,13.888,0,0,0-13.888,13.888h27.776a13.889,13.889,0,0,0-7.215-12.182" transform="translate(705.104 1509.871)" fill="rgba(0,0,0,0)" stroke="#000" stroke-linecap="round" stroke-linejoin="round" stroke-width="1.5"/>
  </g>
</svg>
