<svg xmlns="http://www.w3.org/2000/svg" width="23.05" height="17.001" viewBox="0 0 23.05 17.001">
  <g id="_5fb7fdd8a9fb5a643e339e34_spatial-audio" data-name="5fb7fdd8a9fb5a643e339e34_spatial-audio" transform="translate(-1.495 -5.393)">
    <path id="Path_11599" data-name="Path 11599" d="M15.149,18.3A3.149,3.149,0,1,0,12,15.149,3.149,3.149,0,0,0,15.149,18.3Z" transform="translate(-2.129 -1.255)" fill="none" opacity="0.5"/>
    <path id="Path_11600" data-name="Path 11600" d="M15.149,18.3A3.149,3.149,0,1,0,12,15.149,3.149,3.149,0,0,0,15.149,18.3Z" transform="translate(-2.129 -1.255)" fill="#4abde4" stroke="#16062d" stroke-linecap="round" stroke-linejoin="round" stroke-width="1"/>
    <path id="Path_11601" data-name="Path 11601" d="M9.075,19.656a7.079,7.079,0,0,1,0-10.02" transform="translate(-1.064 -0.752)" fill="none" stroke="#16062d" stroke-linecap="round" stroke-linejoin="round" stroke-width="1"/>
    <path id="Path_11602" data-name="Path 11602" d="M22.364,9.636a7.079,7.079,0,0,1,0,10.02" transform="translate(-4.334 -0.752)" fill="none" stroke="#16062d" stroke-linecap="round" stroke-linejoin="round" stroke-width="1"/>
    <path id="Path_11603" data-name="Path 11603" d="M5.227,21.687a11.012,11.012,0,0,1,0-15.586" transform="translate(0 0)" fill="none" stroke="#16062d" stroke-linecap="round" stroke-linejoin="round" stroke-width="1"/>
    <path id="Path_11604" data-name="Path 11604" d="M25.9,6.1a11.012,11.012,0,0,1,0,15.586" transform="translate(-5.086 0)" fill="none" stroke="#16062d" stroke-linecap="round" stroke-linejoin="round" stroke-width="1"/>
  </g>
</svg>
