<svg id="chrome" xmlns="http://www.w3.org/2000/svg" width="20.229" height="20.229" viewBox="0 0 20.229 20.229">
  <ellipse id="Ellipse_1286" data-name="Ellipse 1286" cx="3.426" cy="3.426" rx="3.426" ry="3.426" transform="translate(6.851 6.851)" fill="#16062d"/>
  <path id="Path_11654" data-name="Path 11654" d="M64.883,9.143a4.551,4.551,0,0,1,4.439-3.572h9.042A10.12,10.12,0,0,0,62.17,2.962q-.276.276-.527.568Z" transform="translate(-59.207 0)" fill="#16062d"/>
  <path id="Path_11655" data-name="Path 11655" d="M11.493,125.247a4.543,4.543,0,0,1-5.325-2.081l-.016-.026L1.66,115.36a10.12,10.12,0,0,0,6.592,15.5Z" transform="translate(0 -110.802)" fill="#16062d"/>
  <path id="Path_11656" data-name="Path 11656" d="M244.88,171a4.536,4.536,0,0,1,.864,5.652l-.012.023-4.492,7.781c.193.011.388.017.583.017A10.127,10.127,0,0,0,251.368,171Z" transform="translate(-231.708 -164.244)" fill="#16062d"/>
</svg>
