<svg xmlns="http://www.w3.org/2000/svg" width="22.05" height="26.901" viewBox="0 0 22.05 26.901">
  <g id="Group_986" data-name="Group 986" transform="translate(-621.866 -895.099)">
    <path id="Path_11922" data-name="Path 11922" d="M8.882,4.571C14.014-2.027,18,4.253,18,9.5A9.26,9.26,0,0,1,9,19,9.26,9.26,0,0,1,0,9.5C0,5.99,1.532,2.167,4.482,1.811c1.212-.854,2.161.912,3.191,2.329C7.954,4.554,8.269,5.359,8.882,4.571Z" transform="translate(624 901.496)" fill="#f0bc5e"/>
    <path id="noun-country-4201018" d="M154.179,27.64a4.876,4.876,0,0,0-4.869,4.868,3.633,3.633,0,0,0,.174,1.043,11.024,11.024,0,1,0,9.385,0,3.635,3.635,0,0,0,.174-1.042,4.872,4.872,0,0,0-4.864-4.868Zm0,.933a3.925,3.925,0,0,1,3.931,3.935,2.591,2.591,0,0,1-.179.838h0a.467.467,0,0,0-.214.512,10.652,10.652,0,0,1-.525.976.468.468,0,0,0-.172.276,17.431,17.431,0,0,1-1.009,1.43,22.7,22.7,0,0,1-1.831,2.08,22.441,22.441,0,0,1-1.836-2.08,17.375,17.375,0,0,1-1-1.42.467.467,0,0,0-.186-.3,10.631,10.631,0,0,1-.513-.952.466.466,0,0,0-.225-.537,2.567,2.567,0,0,1-.174-.824,3.928,3.928,0,0,1,3.935-3.935Zm0,1.591a1.96,1.96,0,1,0,1.958,1.962A1.971,1.971,0,0,0,154.179,30.164Zm0,.933a1.027,1.027,0,1,1-1.029,1.029A1.02,1.02,0,0,1,154.179,31.1Zm-4.349,3.322a9.509,9.509,0,0,0,.464.843,16.374,16.374,0,0,0-1.923,7.791H144.1a10.08,10.08,0,0,1,5.727-8.634Zm8.7,0a10.08,10.08,0,0,1,5.727,8.634h-4.268a16.366,16.366,0,0,0-1.923-7.791,9.516,9.516,0,0,0,.464-.843Zm-7.646,1.719c.239.334.485.663.731.976a27.5,27.5,0,0,0,1.9,2.18v3.759h-4.2a16.189,16.189,0,0,1,1.575-6.916Zm6.6,0a16.176,16.176,0,0,1,1.579,6.915H154.44V39.705a.466.466,0,0,0,.066-.054,31.235,31.235,0,0,0,2.237-2.538c.246-.314.493-.643.732-.976ZM144.1,43.986h4.272a17.072,17.072,0,0,0,1.607,7.21,8.178,8.178,0,0,0,1.407,2.018,10.086,10.086,0,0,1-7.286-9.228Zm5.206,0h4.205V53.5a4.974,4.974,0,0,1-2.7-2.725,16.235,16.235,0,0,1-1.506-6.786Zm5.138,0h4.615a16.233,16.233,0,0,1-1.507,6.786c-.86,1.7-1.969,2.688-3.109,2.82Zm5.545,0h4.272a10.083,10.083,0,0,1-7.286,9.229,8.192,8.192,0,0,0,1.408-2.019,17.069,17.069,0,0,0,1.606-7.21Z" transform="translate(478.715 867.459)" fill="#16062d"/>
  </g>
</svg>
