<svg xmlns="http://www.w3.org/2000/svg" width="20.717" height="25.618" viewBox="0 0 20.717 25.618">
  <g id="Group_711" data-name="Group 711" transform="translate(-111.772 -5.443)">
    <g id="Group_751" data-name="Group 751" transform="translate(111.877 5.543)">
      <path id="Path_11885" data-name="Path 11885" d="M131.331,9.611a.619.619,0,0,0-.6-.557,10.6,10.6,0,0,1-8.183-3.326h0a.573.573,0,0,0-.841,0,10.6,10.6,0,0,1-8.183,3.326.619.619,0,0,0-.6.557l-.945,7.187a11.653,11.653,0,0,0,.913,6.327,10.652,10.652,0,0,0,4.054,4.689l4.878,3.051a.566.566,0,0,0,.605,0l4.88-3.054a10.651,10.651,0,0,0,4.054-4.688,11.653,11.653,0,0,0,.913-6.325Zm-4.62,17.08-4.581,2.852-4.581-2.852a9.39,9.39,0,0,1-3.571-4.135,10.274,10.274,0,0,1-.8-5.577l.875-6.637a11.556,11.556,0,0,0,8.08-3.261,11.557,11.557,0,0,0,8.08,3.264l.875,6.637a10.274,10.274,0,0,1-.8,5.576,9.39,9.39,0,0,1-3.571,4.134Z" transform="translate(-111.877 -5.543)" fill="#16062d" stroke="#fff" stroke-width="0.2"/>
    </g>
    <g id="Group_894" data-name="Group 894" transform="translate(-1.013 -0.902)">
      <path id="Polygon_1" data-name="Polygon 1" d="M6.12,1.635a1,1,0,0,1,1.761,0l5.326,9.891A1,1,0,0,1,12.326,13H1.674a1,1,0,0,1-.88-1.474Z" transform="translate(116.143 11.243)" fill="#84e173"/>
      <path id="Path_11886" data-name="Path 11886" d="M220.348,142.172a1.8,1.8,0,0,0-.9-.863,1.525,1.525,0,0,0-1.178,0,1.8,1.8,0,0,0-.9.863l-4.72,9.291a2.189,2.189,0,0,0-.2,1.319,2.031,2.031,0,0,0,.589,1.16,1.6,1.6,0,0,0,1.107.457h9.44a1.7,1.7,0,0,0,1.49-.979,2.194,2.194,0,0,0,0-1.957Zm3.579,10.5a.4.4,0,0,1-.354.233h-9.435a.4.4,0,0,1-.354-.233.521.521,0,0,1,0-.465l4.72-9.291a.386.386,0,0,1,.711,0l4.72,9.291h0a.511.511,0,0,1-.008.465Z" transform="translate(-95.839 -129.295)" fill="#16062d" stroke="#fff" stroke-width="0.2"/>
      <path id="Path_11887" data-name="Path 11887" d="M336.746,219.57a.746.746,0,0,0-.746.746V223a.746.746,0,0,0,1.492,0v-2.686a.746.746,0,0,0-.746-.746Z" transform="translate(-213.727 -203.497)" fill="#16062d"/>
      <path id="Path_11888" data-name="Path 11888" d="M336.746,315.67a.746.746,0,0,0-.746.746v.039a.746.746,0,0,0,1.492,0v-.045A.746.746,0,0,0,336.746,315.67Z" transform="translate(-213.727 -294.477)" fill="#16062d"/>
    </g>
  </g>
</svg>
