<svg id="mac-os-logo" xmlns="http://www.w3.org/2000/svg" width="16.471" height="20.229" viewBox="0 0 16.471 20.229">
  <g id="Group_125" data-name="Group 125">
    <path id="Path_11644" data-name="Path 11644" d="M15.039,9.2a4.575,4.575,0,0,1,2.184-3.852,4.721,4.721,0,0,0-3.7-2c-1.573-.161-3.072.926-3.872.926s-2.031-.9-3.337-.881A4.955,4.955,0,0,0,2.129,5.925c-1.784,3.1-.457,7.68,1.281,10.194.85,1.228,1.864,2.607,3.194,2.559,1.281-.051,1.765-.83,3.314-.83s1.985.83,3.339.8c1.379-.026,2.251-1.253,3.094-2.484a11.257,11.257,0,0,0,1.4-2.877A4.476,4.476,0,0,1,15.039,9.2Z" transform="translate(-1.282 1.55)" fill="#16062d"/>
    <path id="Path_11645" data-name="Path 11645" d="M9.891,3.23A4.457,4.457,0,0,0,10.944,0a4.528,4.528,0,0,0-2.98,1.532A4.24,4.24,0,0,0,6.891,4.661,3.75,3.75,0,0,0,9.891,3.23Z" transform="translate(1.318)" fill="#16062d"/>
  </g>
</svg>
