<svg xmlns="http://www.w3.org/2000/svg" width="19.962" height="20.788" viewBox="0 0 19.962 20.788">
  <g id="_5fb7fdd849ae2325038e15a0_encryption" data-name="5fb7fdd849ae2325038e15a0_encryption" transform="translate(-4.5 -4.5)">
    <path id="Path_11596" data-name="Path 11596" d="M5,11.762V5.811a.817.817,0,0,1,.235-.574A.8.8,0,0,1,5.8,5H21.834a.8.8,0,0,1,.567.238.817.817,0,0,1,.235.574v5.951c0,8.522-7.145,11.346-8.572,11.825a.748.748,0,0,1-.492,0C12.145,23.108,5,20.285,5,11.762Z" transform="translate(0 1.157)" fill="#00b894" opacity="0.53"/>
    <path id="Path_11597" data-name="Path 11597" d="M5,12.182V5.862A.862.862,0,0,1,5.862,5H23.1a.862.862,0,0,1,.862.862v6.321c0,9.052-7.682,12.051-9.216,12.559a.814.814,0,0,1-.529,0C12.682,24.233,5,21.234,5,12.182Z" fill="none" stroke="#16062d" stroke-linecap="round" stroke-linejoin="round" stroke-width="1"/>
    <path id="Path_11598" data-name="Path 11598" d="M19.981,12,13.66,18.033,10.5,15.017" transform="translate(-0.76 -0.967)" fill="none" stroke="#16062d" stroke-linecap="round" stroke-linejoin="round" stroke-width="1"/>
  </g>
</svg>
